<svg xmlns="http://www.w3.org/2000/svg" xmlns:xlink="http://www.w3.org/1999/xlink" width="62" height="88"><defs><path id="b" d="M1463.343 3784.77v-9.742h8.511c1.107-3.143 3.935-5.029 7.25-5.029s6.143 1.886 7.25 5.029h7.99v9.743zm46.657-9.742v82.971h-62v-82.971h10.333v15.085h41.334v-15.085zm-31 66.942h-20.667v5.03H1479zm0-20.742h-20.667v5.028H1479zm0-20.743h-20.667v5.029H1479zm20.741 42.32l-3.542-3.555-5.118 5.137-1.673-1.68-3.543 3.556 5.216 5.235zm0-20.742l-3.542-3.556-5.118 5.136-1.673-1.679-3.543 3.556 5.216 5.235zm0-20.743l-3.542-3.556-5.118 5.137-1.673-1.68-3.543 3.556 5.216 5.235z"/><linearGradient id="a" x1="1479" x2="1479" y1="3858" y2="3770" gradientUnits="userSpaceOnUse"><stop offset="0" stop-color="#5075e7"/><stop offset="1" stop-color="#8cadf4"/></linearGradient></defs><use fill="url(#a)" xlink:href="#b" transform="translate(-1448 -3770)"/></svg>