<svg xmlns="http://www.w3.org/2000/svg" xmlns:xlink="http://www.w3.org/1999/xlink" width="78" height="80"><defs><path id="a" d="M1098 1209v32h-32.276v-32zm-2.69 2.666h-12.103v16.782l5.773-5.724 1.902 1.885-9.02 8.943-9.02-8.943 1.902-1.885 5.773 5.724v-16.782h-12.103v26.667h26.896zm-61.862 26.667H1059V1241h-39v-80h61.862v41.333h-2.69v-38.667h-45.724zm-2.69 0v-74.667h-8.068v74.667zm9.414-45.333v-18.667h32.276V1193zm2.69-2.667h26.897V1177h-26.897zm4.034-10.667h18.828v2.667h-18.828zm0 5.334h18.828v2.666h-18.828z"/></defs><use fill="#6083ea" xlink:href="#a" transform="translate(-1020 -1161)"/></svg>