<svg xmlns="http://www.w3.org/2000/svg" xmlns:xlink="http://www.w3.org/1999/xlink" width="80" height="83"><defs><path id="a" d="M1100.562 994.47a1.481 1.481 0 1 1-2.094 2.096l-10.07-10.075-4.803 9.61-9.626-26.142 26.13 9.631-9.606 4.806zm-16.553-5.824l2.878-5.762 5.76-2.88-13.678-5.042zm-24.494-55.378c0-.82.663-1.483 1.482-1.483h26.666c.82 0 1.482.663 1.482 1.483a1.48 1.48 0 0 1-1.482 1.482h-26.666a1.48 1.48 0 0 1-1.482-1.482zm0 20.75c0-.82.663-1.482 1.482-1.482h26.666c.82 0 1.482.662 1.482 1.481a1.48 1.48 0 0 1-1.482 1.483h-26.666a1.48 1.48 0 0 1-1.482-1.483zm-7.87-27.2l-10.157 11.858a1.475 1.475 0 0 1-2.014.222l-6.772-5.082a1.48 1.48 0 0 1-.296-2.073 1.479 1.479 0 0 1 2.073-.297l5.662 4.248 9.256-10.802c.53-.624 1.47-.69 2.087-.16.623.534.695 1.467.162 2.087zm0 20.75l-10.157 11.858a1.475 1.475 0 0 1-2.014.222l-6.772-5.082a1.48 1.48 0 0 1-.296-2.073 1.478 1.478 0 0 1 2.073-.297l5.662 4.248 9.256-10.802a1.479 1.479 0 0 1 2.087-.16c.623.533.695 1.467.162 2.087zm-.16 20.146a1.48 1.48 0 0 1 .16 2.089l-10.157 11.855a1.474 1.474 0 0 1-1.126.519 1.47 1.47 0 0 1-.888-.297l-6.772-5.082a1.48 1.48 0 1 1 1.777-2.37l5.662 4.248 9.256-10.8a1.48 1.48 0 0 1 2.089-.162zm49.511-35.668v36.793a1.48 1.48 0 0 1-1.481 1.482 1.48 1.48 0 0 1-1.481-1.482v-36.793c0-8.318-6.762-15.082-15.076-15.082h-43.922c-8.314 0-15.076 6.764-15.076 15.082v43.943c0 8.318 6.762 15.082 15.076 15.082h29.368c.82 0 1.482.663 1.482 1.482a1.48 1.48 0 0 1-1.482 1.483h-29.368c-9.947 0-18.039-8.096-18.039-18.047v-43.943c0-9.95 8.092-18.046 18.039-18.046h43.922c9.947 0 18.038 8.095 18.038 18.046z"/></defs><use fill="#b65aea" xlink:href="#a" transform="translate(-1021 -914)"/></svg>