<svg xmlns="http://www.w3.org/2000/svg" xmlns:xlink="http://www.w3.org/1999/xlink" width="78" height="83"><defs><path id="a" d="M374.684 947.816c0-.763.613-1.383 1.369-1.383h34.21c.755 0 1.369.62 1.369 1.383 0 .764-.614 1.384-1.369 1.384h-34.21c-.756 0-1.369-.62-1.369-1.384zm0-11.066c0-.764.613-1.384 1.369-1.384h13.684c.755 0 1.368.62 1.368 1.384 0 .763-.613 1.383-1.368 1.383h-13.684c-.756 0-1.369-.62-1.369-1.383zm0 22.133c0-.764.613-1.383 1.369-1.383h34.21c.755 0 1.369.62 1.369 1.383 0 .764-.614 1.383-1.369 1.383h-34.21c-.756 0-1.369-.62-1.369-1.383zm26 11.067c0 .763-.613 1.383-1.368 1.383h-23.263c-.756 0-1.369-.62-1.369-1.383 0-.764.613-1.384 1.369-1.384h23.263c.755 0 1.368.62 1.368 1.384zm-4.105 11.066c0 .764-.613 1.384-1.369 1.384h-19.157c-.756 0-1.369-.62-1.369-1.384 0-.763.613-1.383 1.369-1.383h19.157c.756 0 1.369.62 1.369 1.383zm42.42 0c0 9.916-7.98 17.984-17.789 17.984H361v-83h44.356l19.96 20.177v27.358c7.833 1.882 13.684 8.996 13.684 17.481zm-32.841-45.65h14.486l-14.486-14.644zm5.268 60.657c-.101-.068-.202-.136-.302-.206a18.18 18.18 0 0 1-1.203-.91c-.033-.027-.063-.056-.094-.083a17.9 17.9 0 0 1-1.039-.955c-.088-.086-.174-.17-.259-.257a18.04 18.04 0 0 1-.996-1.108c-.053-.065-.103-.133-.155-.198-.275-.345-.537-.7-.788-1.065-.064-.095-.13-.186-.193-.281a17.814 17.814 0 0 1-.771-1.283c-.051-.094-.098-.189-.147-.283a17.932 17.932 0 0 1-.573-1.202c-.037-.087-.078-.173-.115-.262a18.409 18.409 0 0 1-.52-1.434c-.036-.112-.067-.227-.101-.34a17.878 17.878 0 0 1-.352-1.381c-.013-.06-.029-.12-.041-.181a18.33 18.33 0 0 1-.274-1.941 18.488 18.488 0 0 1-.082-1.637c0-9.915 7.98-17.983 17.79-17.983.446 0 .9.02 1.368.06v-24.96H403.42v-19.366h-39.684v77.466h48.001c-.105-.068-.206-.142-.312-.21zm24.837-15.007c0-7.31-5.127-13.428-11.935-14.884l-.606-.102a17.554 17.554 0 0 0-1.244-.165c-.42-.036-.84-.065-1.268-.065-8.299 0-15.052 6.826-15.052 15.216s6.753 15.217 15.052 15.217c8.3 0 15.053-6.827 15.053-15.217zm-6.06-8.05c.62.435.773 1.298.341 1.925l-8.503 12.352a1.374 1.374 0 0 1-1.123.592c-.315 0-.622-.111-.868-.314l-6.55-5.435a1.39 1.39 0 0 1-.19-1.946 1.357 1.357 0 0 1 1.926-.193l5.404 4.485 7.658-11.122a1.358 1.358 0 0 1 1.904-.345z"/></defs><use fill="#6083ea" xlink:href="#a" transform="translate(-361 -916)"/></svg>