<svg xmlns="http://www.w3.org/2000/svg" xmlns:xlink="http://www.w3.org/1999/xlink" width="79" height="83"><defs><path id="a" d="M434.762 1212.258l-21.49 21.291-10.86 2.934-.726.72a1.399 1.399 0 0 1-1.963.007l-.027.007.007-.028a1.371 1.371 0 0 1 .009-1.944l.724-.718 2.962-10.76 21.49-21.291a4.202 4.202 0 0 1 5.893 0l3.98 3.942a4.106 4.106 0 0 1 .001 5.84zm-22.215 18.096l14.302-14.17-5.924-5.87-14.303 14.17zm-8.872 2.92l6.182-1.67-4.496-4.456zm29.113-24.9l-3.98-3.943a1.388 1.388 0 0 0-1.946.002l-3.964 3.927 5.924 5.868 3.964-3.927a1.354 1.354 0 0 0 .002-1.927zm-61.822 28.859h20.945V1240h-34.908v-83h64.23v41.5h-2.792v-38.733h-47.475zm-2.793 0v-77.466h-8.378v77.466zm9.774-47.033v-19.367h33.512v19.367zm2.793-2.767h27.926V1173.6H380.74zm4.189-11.067h19.548v2.767H384.93zm0 5.534h19.548v2.767H384.93z"/></defs><use fill="#fc618a" xlink:href="#a" transform="translate(-357 -1157)"/></svg>